<?xml version="1.0" encoding="utf-8"?>
<!-- Generator: Adobe Illustrator 28.0.0, SVG Export Plug-In . SVG Version: 6.00 Build 0)  -->
<svg version="1.1" id="Layer_1" xmlns="http://www.w3.org/2000/svg" xmlns:xlink="http://www.w3.org/1999/xlink" x="0px" y="0px"
	 viewBox="0 0 1600 1080" style="enable-background:new 0 0 1600 1080;" xml:space="preserve">
<style type="text/css">
	.st0{fill:url(#SVGID_1_);}
	.st1{fill:#FFFFFF;}
	.st2{fill:#494AAA;}
</style>
<linearGradient id="SVGID_1_" gradientUnits="userSpaceOnUse" x1="0" y1="1108" x2="1600" y2="1108" gradientTransform="matrix(1 0 0 -1 0 1648)">
	<stop  offset="0" style="stop-color:#363782"/>
	<stop  offset="1" style="stop-color:#6365E9"/>
</linearGradient>
<rect class="st0" width="1600" height="1080"/>
<g>
	<g>
		<path class="st1" d="M700.8,536.5h-7l-1.7,3.3h-4.8l10.1-18.7h5.3l3.5,18.7h-4.8L700.8,536.5L700.8,536.5z M700.2,533.1l-1.1-6.9
			l-3.6,6.9H700.2L700.2,533.1z"/>
		<path class="st1" d="M717.3,539.5c-0.9-0.4-1.7-0.9-2.2-1.6s-0.8-1.4-0.8-2.3c0-0.1,0-0.4,0-0.7h4.4c0,0.5,0.1,1,0.5,1.3
			s0.9,0.5,1.6,0.5c0.6,0,1-0.1,1.4-0.3s0.6-0.5,0.6-0.9s-0.2-0.7-0.6-0.9c-0.4-0.2-1.1-0.5-2-0.8c-1-0.3-1.8-0.6-2.4-1
			c-0.7-0.3-1.2-0.8-1.7-1.4c-0.5-0.6-0.7-1.3-0.7-2.2s0.3-1.7,0.8-2.4c0.5-0.7,1.2-1.2,2.2-1.6c1-0.4,2-0.6,3.2-0.6
			c1.2,0,2.3,0.2,3.2,0.6c0.9,0.4,1.6,1,2.1,1.7s0.8,1.5,0.8,2.4v0.4h-4.1c0-0.5-0.1-1-0.5-1.3s-0.9-0.5-1.5-0.5
			c-0.5,0-0.9,0.1-1.3,0.3c-0.3,0.2-0.5,0.5-0.5,0.9c0,0.4,0.2,0.7,0.7,1c0.4,0.3,1.1,0.5,2,0.9c1,0.3,1.8,0.6,2.4,1
			c0.6,0.3,1.2,0.8,1.6,1.3c0.5,0.6,0.7,1.3,0.7,2.1c0,1-0.3,1.8-0.9,2.5c-0.6,0.7-1.4,1.2-2.4,1.6c-1,0.4-2.2,0.5-3.4,0.5
			C719.3,540,718.3,539.9,717.3,539.5L717.3,539.5z"/>
		<path class="st1" d="M736.4,525l-2.6,14.9h-4.6l2.6-14.9H736.4L736.4,525z M732.7,522.8c-0.4-0.4-0.6-0.9-0.6-1.5
			c0-0.8,0.3-1.5,0.9-2c0.6-0.6,1.4-0.9,2.3-0.9c0.7,0,1.3,0.2,1.7,0.6c0.4,0.4,0.6,0.9,0.6,1.5c0,0.8-0.3,1.5-0.9,2
			c-0.6,0.5-1.4,0.9-2.2,0.9C733.7,523.4,733.1,523.2,732.7,522.8L732.7,522.8z"/>
		<path class="st1" d="M762.5,526.1c0.9,0.8,1.3,2,1.3,3.5c0,0.5,0,1-0.2,1.5l-1.5,8.7h-4.5l1.4-8.1c0-0.2,0-0.4,0-0.7
			c0-0.8-0.2-1.3-0.6-1.7c-0.4-0.4-1-0.6-1.8-0.6c-0.9,0-1.6,0.3-2.2,0.8s-1,1.3-1.2,2.2l-1.4,8.1h-4.5l1.4-8.1c0-0.2,0-0.4,0-0.7
			c0-0.8-0.2-1.3-0.6-1.7s-1-0.6-1.8-0.6c-0.9,0-1.6,0.3-2.2,0.8c-0.6,0.5-1,1.3-1.2,2.2v-0.1l-1.4,8.2h-4.6l2.6-14.9h4.6l-0.3,1.9
			c0.6-0.6,1.3-1.1,2.1-1.5c0.8-0.4,1.7-0.5,2.6-0.5c1.1,0,2.1,0.2,2.9,0.7s1.3,1.2,1.7,2.1c0.7-0.8,1.5-1.5,2.5-2s2-0.8,3.1-0.8
			C760.3,524.8,761.5,525.2,762.5,526.1L762.5,526.1z"/>
		<path class="st1" d="M774.2,525.4c0.9-0.4,1.8-0.6,2.9-0.6c1.6,0,2.9,0.5,3.9,1.6c1,1,1.5,2.5,1.5,4.3c0,0.5,0,1.1-0.2,1.8
			c-0.3,1.5-0.8,2.9-1.6,4c-0.8,1.1-1.7,2.1-2.8,2.7c-1.1,0.6-2.3,1-3.5,1c-1,0-1.9-0.2-2.6-0.6c-0.7-0.4-1.2-1-1.6-1.6l-1.6,9.2
			H764l3.9-22h4.6l-0.4,2.1C772.7,526.4,773.4,525.8,774.2,525.4L774.2,525.4z M777.8,531.6c0-0.9-0.2-1.6-0.8-2.1s-1.2-0.8-1.9-0.8
			c-0.9,0-1.7,0.3-2.5,1c-0.8,0.7-1.2,1.6-1.4,2.7c0,0.3-0.1,0.6-0.1,0.9c0,0.9,0.2,1.6,0.8,2c0.5,0.5,1.1,0.8,1.9,0.8
			c0.9,0,1.7-0.3,2.5-1c0.8-0.7,1.2-1.6,1.5-2.7C777.7,532.1,777.8,531.8,777.8,531.6L777.8,531.6z"/>
		<path class="st1" d="M791.5,520.1l-3.5,19.7h-4.6l3.5-19.7H791.5L791.5,520.1z"/>
		<path class="st1" d="M805.1,526.3c1.1,1,1.7,2.5,1.7,4.2c0,0.6,0,1.1-0.1,1.6c-0.1,0.4-0.2,0.8-0.3,1.3h-10.3c0,0.1,0,0.3,0,0.5
			c0,0.8,0.2,1.4,0.6,1.8c0.4,0.4,1,0.6,1.7,0.6c1.1,0,2-0.5,2.6-1.4h4.8c-0.6,1.5-1.7,2.8-3.1,3.7c-1.4,0.9-3.1,1.4-4.8,1.4
			c-1.9,0-3.5-0.5-4.6-1.6c-1.2-1.1-1.7-2.5-1.7-4.4c0-0.5,0-1.1,0.2-1.7c0.3-1.5,0.8-2.9,1.7-4c0.9-1.1,1.9-2,3.1-2.7
			c1.2-0.6,2.6-0.9,4.1-0.9C802.5,524.7,804,525.3,805.1,526.3L805.1,526.3z M802.2,530.6c0-0.7-0.2-1.3-0.7-1.6
			c-0.4-0.4-1-0.6-1.8-0.6c-0.8,0-1.5,0.2-2.1,0.7s-1,1.1-1.3,2h5.7C802.2,530.9,802.2,530.7,802.2,530.6L802.2,530.6z"/>
		<path class="st1" d="M830.6,521.1l-0.6,3.6h-5l-2.7,15.1h-4.5l2.7-15.1h-5l0.6-3.6H830.6L830.6,521.1z"/>
		<path class="st1" d="M833,539.3c-1-0.5-1.8-1.2-2.3-2.2c-0.5-0.9-0.8-2-0.8-3.3c0-1.7,0.4-3.2,1.2-4.6c0.8-1.4,1.9-2.5,3.3-3.3
			s3-1.2,4.7-1.2c1.3,0,2.4,0.3,3.4,0.8s1.8,1.3,2.3,2.2s0.8,2,0.8,3.3c0,1.7-0.4,3.2-1.2,4.6c-0.8,1.4-1.9,2.5-3.3,3.2
			c-1.4,0.8-3,1.2-4.7,1.2C835.1,540,834,539.8,833,539.3L833,539.3z M839,535.5c0.6-0.5,1.1-1,1.4-1.8s0.5-1.5,0.5-2.2
			c0-0.9-0.2-1.6-0.7-2c-0.5-0.5-1.1-0.7-1.8-0.7c-0.8,0-1.4,0.2-2,0.7s-1,1-1.3,1.8c-0.3,0.7-0.5,1.5-0.5,2.3c0,0.9,0.2,1.5,0.7,2
			s1.1,0.7,1.8,0.7C837.8,536.3,838.5,535.9,839,535.5L839,535.5z"/>
		<path class="st1" d="M867.5,522c1.2,0.6,2.2,1.5,2.9,2.6c0.7,1.1,1,2.4,1,3.9c0,0.5-0.1,1.2-0.2,2c-0.3,1.8-1,3.5-2.1,4.9
			s-2.4,2.5-4,3.3s-3.4,1.2-5.4,1.2h-7l3.3-18.7h7C864.8,521.1,866.3,521.5,867.5,522L867.5,522z M864.4,534.5c1.1-1,1.8-2.3,2.1-4
			c0.1-0.5,0.1-1,0.1-1.3c0-1.3-0.4-2.3-1.2-3c-0.8-0.7-1.9-1.1-3.4-1.1h-2.2l-1.9,10.9h2.2C861.8,535.9,863.3,535.5,864.4,534.5
			L864.4,534.5z"/>
		<path class="st1" d="M875.5,539.3c-1-0.5-1.8-1.2-2.3-2.2c-0.5-0.9-0.8-2-0.8-3.3c0-1.7,0.4-3.2,1.2-4.6c0.8-1.4,1.9-2.5,3.3-3.3
			s3-1.2,4.7-1.2c1.3,0,2.4,0.3,3.4,0.8s1.8,1.3,2.3,2.2s0.8,2,0.8,3.3c0,1.7-0.4,3.2-1.2,4.6c-0.8,1.4-1.9,2.5-3.3,3.2
			c-1.4,0.8-3,1.2-4.7,1.2C877.6,540,876.5,539.8,875.5,539.3L875.5,539.3z M881.6,535.5c0.6-0.5,1.1-1,1.4-1.8s0.5-1.5,0.5-2.2
			c0-0.9-0.2-1.6-0.7-2c-0.5-0.5-1.1-0.7-1.8-0.7c-0.8,0-1.4,0.2-2,0.7s-1,1-1.3,1.8c-0.3,0.7-0.5,1.5-0.5,2.3c0,0.9,0.2,1.5,0.7,2
			s1.1,0.7,1.8,0.7C880.4,536.3,881,535.9,881.6,535.5L881.6,535.5z"/>
		<path class="st1" d="M696.6,552.1l-3.5,19.7h-4.6l3.5-19.7H696.6z"/>
		<path class="st1" d="M703.6,557l-2.6,14.9h-4.6L699,557H703.6z M699.9,554.8c-0.4-0.4-0.6-0.9-0.6-1.5c0-0.8,0.3-1.5,0.9-2
			c0.6-0.5,1.4-0.8,2.3-0.8c0.7,0,1.3,0.2,1.7,0.6s0.6,0.9,0.6,1.5c0,0.8-0.3,1.5-0.9,2c-0.6,0.5-1.4,0.8-2.2,0.8
			C700.9,555.4,700.3,555.2,699.9,554.8L699.9,554.8z"/>
		<path class="st1" d="M707.3,571.5c-0.9-0.4-1.7-0.9-2.2-1.6s-0.8-1.4-0.8-2.3c0-0.1,0-0.3,0-0.7h4.4c0,0.5,0.1,1,0.5,1.3
			s0.9,0.5,1.6,0.5c0.6,0,1-0.1,1.4-0.3s0.6-0.5,0.6-0.9s-0.2-0.7-0.6-0.9c-0.4-0.2-1.1-0.5-2-0.8c-1-0.3-1.8-0.6-2.4-1
			c-0.7-0.3-1.2-0.8-1.7-1.3c-0.5-0.6-0.7-1.3-0.7-2.2s0.3-1.7,0.8-2.4s1.2-1.2,2.2-1.6s2-0.6,3.2-0.6c1.2,0,2.3,0.2,3.2,0.6
			c0.9,0.4,1.6,1,2.1,1.7s0.8,1.5,0.8,2.4v0.4h-4.1c0-0.5-0.1-1-0.5-1.3s-0.9-0.5-1.5-0.5c-0.5,0-0.9,0.1-1.3,0.3
			c-0.4,0.2-0.5,0.5-0.5,0.9s0.2,0.7,0.7,1c0.4,0.3,1.1,0.5,2,0.9c1,0.3,1.8,0.6,2.4,1c0.6,0.3,1.2,0.8,1.6,1.3
			c0.5,0.6,0.7,1.3,0.7,2.1c0,1-0.3,1.8-0.9,2.5c-0.6,0.7-1.4,1.2-2.4,1.6c-1,0.4-2.2,0.5-3.4,0.5
			C709.3,572,708.2,571.8,707.3,571.5L707.3,571.5z"/>
		<path class="st1" d="M725.3,566.7c0,0.1,0,0.2,0,0.3c0,0.3,0.1,0.5,0.3,0.7c0.2,0.2,0.5,0.2,0.9,0.2h1.6l-0.7,3.9h-2.3
			c-3,0-4.5-1.2-4.5-3.8c0-0.4,0-0.8,0.1-1.4l1.1-5.9H720l0.7-3.8h1.8l0.6-3.6h4.6l-0.6,3.6h3l-0.7,3.8h-3L725.3,566.7z"/>
		<path class="st1" d="M744.6,555.2c-0.4,0.3-0.7,0.8-0.8,1.6v0.1h2.5l-0.7,3.8h-2.5l-2,11.1h-4.6l2-11.1h-1.7l0.7-3.8h1.7l0.1-0.4
			c0.3-1.8,1.1-3.2,2.3-4.2c1.2-1,2.8-1.4,4.9-1.4c0.3,0,0.6,0,0.7,0l-0.7,3.9C745.6,554.8,745,554.9,744.6,555.2L744.6,555.2z"/>
		<path class="st1" d="M749.1,571.3c-1-0.5-1.8-1.2-2.3-2.2c-0.5-0.9-0.8-2-0.8-3.3c0-1.7,0.4-3.2,1.2-4.6c0.8-1.4,1.9-2.5,3.3-3.3
			c1.4-0.8,3-1.2,4.7-1.2c1.3,0,2.4,0.3,3.4,0.8s1.8,1.3,2.3,2.2s0.8,2,0.8,3.3c0,1.7-0.4,3.2-1.2,4.6c-0.8,1.4-1.9,2.5-3.3,3.2
			c-1.4,0.8-3,1.2-4.7,1.2C751.2,572,750.1,571.8,749.1,571.3L749.1,571.3z M755.1,567.4c0.6-0.5,1.1-1,1.4-1.8
			c0.3-0.7,0.5-1.5,0.5-2.2c0-0.9-0.2-1.6-0.7-2s-1.1-0.7-1.8-0.7c-0.8,0-1.4,0.2-2,0.7s-1,1-1.3,1.8c-0.3,0.7-0.5,1.5-0.5,2.3
			c0,0.9,0.2,1.5,0.7,2s1.1,0.7,1.8,0.7C753.9,568.2,754.6,567.9,755.1,567.4L755.1,567.4z"/>
		<path class="st1" d="M771.8,557.5c0.9-0.5,1.8-0.8,2.8-0.8l-0.8,4.8h-1.2c-1.1,0-2,0.2-2.7,0.7c-0.7,0.5-1.1,1.3-1.3,2.6l-1.2,6.9
			h-4.6l2.6-14.9h4.6l-0.5,2.7C770.1,558.7,770.9,558,771.8,557.5L771.8,557.5z"/>
		<path class="st1" d="M786.3,557l1.8,9.3l5.1-9.3h4.9l-13.2,21.9H780l4.8-7.6l-3.5-14.4L786.3,557L786.3,557z"/>
		<path class="st1" d="M800.5,571.3c-1-0.5-1.8-1.2-2.3-2.2c-0.5-0.9-0.8-2-0.8-3.3c0-1.7,0.4-3.2,1.2-4.6c0.8-1.4,1.9-2.5,3.3-3.3
			s3-1.2,4.7-1.2c1.3,0,2.4,0.3,3.4,0.8s1.8,1.3,2.3,2.2s0.8,2,0.8,3.3c0,1.7-0.4,3.2-1.2,4.6c-0.8,1.4-1.9,2.5-3.3,3.2
			c-1.4,0.8-3,1.2-4.7,1.2C802.6,572,801.5,571.8,800.5,571.3L800.5,571.3z M806.5,567.4c0.6-0.5,1.1-1,1.4-1.8
			c0.3-0.7,0.5-1.5,0.5-2.2c0-0.9-0.2-1.6-0.7-2s-1.1-0.7-1.8-0.7c-0.8,0-1.4,0.2-2,0.7s-1,1-1.3,1.8c-0.3,0.7-0.5,1.5-0.5,2.3
			c0,0.9,0.2,1.5,0.7,2s1.1,0.7,1.8,0.7C805.3,568.2,806,567.9,806.5,567.4L806.5,567.4z"/>
		<path class="st1" d="M831.4,557l-2.6,14.9h-4.6l0.3-2c-0.6,0.7-1.3,1.2-2.2,1.6c-0.8,0.4-1.8,0.6-2.7,0.6c-1.5,0-2.7-0.4-3.5-1.3
			c-0.8-0.8-1.3-2-1.3-3.5c0-0.6,0-1.1,0.1-1.5l1.5-8.7h4.5l-1.4,8.1c0,0.3-0.1,0.6-0.1,0.8c0,0.8,0.2,1.3,0.6,1.7
			c0.4,0.4,1,0.6,1.8,0.6c0.8,0,1.6-0.2,2.2-0.8c0.6-0.5,1-1.2,1.2-2.2l1.5-8.3L831.4,557L831.4,557z"/>
	</g>
	<path class="st1" d="M708.2,357.8h36.4c14.8,0,26.8,12,26.8,26.8V421c0,14.8-12,26.8-26.8,26.8h-36.4c-14.8,0-26.8-12-26.8-26.8
		v-36.4C681.4,369.8,693.4,357.8,708.2,357.8z"/>
	<g>
		<path class="st2" d="M721.8,372.4v5.5h-7.5v22.8h-6.9v-22.8h-7.5v-5.5H721.8L721.8,372.4z"/>
		<path class="st2" d="M729.6,399.7c-1.8-0.9-3.2-2.3-4.2-4c-1-1.8-1.5-3.8-1.5-6.1s0.5-4.4,1.5-6.1c1-1.8,2.4-3.1,4.2-4.1
			c1.8-0.9,3.8-1.4,6-1.4c2.2,0,4.2,0.5,6,1.4c1.8,0.9,3.2,2.3,4.2,4.1c1,1.8,1.5,3.8,1.5,6.1s-0.5,4.4-1.5,6.1
			c-1,1.8-2.5,3.1-4.2,4.1c-1.8,0.9-3.8,1.4-6,1.4C733.4,401.2,731.4,400.6,729.6,399.7L729.6,399.7z M738.9,393.7
			c0.9-1,1.4-2.4,1.4-4.2s-0.5-3.2-1.3-4.2c-0.9-1-2-1.5-3.3-1.5c-1.3,0-2.5,0.5-3.3,1.4c-0.9,1-1.3,2.4-1.3,4.2s0.4,3.2,1.3,4.2
			c0.9,1,2,1.5,3.3,1.5C737,395.1,738,394.7,738.9,393.7L738.9,393.7z"/>
		<path class="st2" d="M719.9,406.2c2.2,1.2,4,2.9,5.2,5c1.2,2.1,1.8,4.6,1.8,7.4s-0.6,5.2-1.8,7.4c-1.2,2.1-3,3.8-5.2,5
			c-2.2,1.2-4.8,1.8-7.8,1.8h-10.6v-28.3h10.6C715,404.5,717.7,405.1,719.9,406.2L719.9,406.2z M717.7,424.7c1.5-1.4,2.2-3.4,2.2-6
			s-0.7-4.6-2.2-6.1s-3.5-2.2-6.1-2.2h-3.3v16.5h3.3C714.2,426.8,716.3,426.1,717.7,424.7z"/>
		<path class="st2" d="M735.1,431.7c-1.8-0.9-3.2-2.3-4.2-4c-1-1.8-1.5-3.8-1.5-6.1s0.5-4.4,1.5-6.1c1-1.8,2.4-3.1,4.2-4.1
			c1.8-0.9,3.8-1.4,6-1.4c2.2,0,4.2,0.5,6,1.4c1.8,0.9,3.2,2.3,4.2,4.1c1,1.8,1.5,3.8,1.5,6.1s-0.5,4.4-1.5,6.1
			c-1,1.8-2.5,3.1-4.2,4.1c-1.8,0.9-3.8,1.4-6,1.4C738.9,433.2,736.9,432.6,735.1,431.7L735.1,431.7z M744.4,425.7
			c0.9-1,1.4-2.4,1.4-4.2s-0.5-3.2-1.3-4.2c-0.9-1-2-1.5-3.3-1.5c-1.3,0-2.5,0.5-3.3,1.4c-0.9,1-1.3,2.4-1.3,4.2s0.4,3.2,1.3,4.2
			c0.9,1,2,1.5,3.3,1.5C742.5,427.1,743.5,426.7,744.4,425.7L744.4,425.7z"/>
	</g>
	<g>
		<circle class="st1" cx="903.6" cy="683.2" r="4"/>
		<circle class="st1" cx="892.6" cy="683.2" r="4"/>
		<circle class="st1" cx="881.6" cy="683.2" r="4"/>
		<circle class="st1" cx="870.6" cy="683.2" r="4"/>
		<circle class="st1" cx="859.6" cy="683.2" r="4"/>
		<circle class="st1" cx="848.6" cy="683.2" r="4"/>
		<circle class="st1" cx="837.6" cy="683.2" r="4"/>
		<circle class="st1" cx="826.6" cy="683.2" r="4"/>
		<circle class="st1" cx="914.6" cy="694.2" r="4"/>
		<circle class="st1" cx="903.6" cy="694.2" r="4"/>
		<circle class="st1" cx="892.6" cy="694.2" r="4"/>
		<circle class="st1" cx="881.6" cy="694.2" r="4"/>
		<circle class="st1" cx="870.6" cy="694.2" r="4"/>
		<circle class="st1" cx="859.6" cy="694.2" r="4"/>
		<circle class="st1" cx="848.6" cy="694.2" r="4"/>
		<circle class="st1" cx="837.6" cy="694.2" r="4"/>
		<circle class="st1" cx="903.6" cy="706.2" r="4"/>
		<circle class="st1" cx="892.6" cy="706.2" r="4"/>
		<circle class="st1" cx="881.6" cy="706.2" r="4"/>
		<circle class="st1" cx="870.6" cy="706.2" r="4"/>
		<circle class="st1" cx="859.6" cy="706.2" r="4"/>
		<circle class="st1" cx="848.6" cy="706.2" r="4"/>
		<circle class="st1" cx="837.6" cy="706.2" r="4"/>
		<circle class="st1" cx="826.6" cy="706.2" r="4"/>
		<circle class="st1" cx="892.6" cy="672.2" r="4"/>
		<circle class="st1" cx="881.6" cy="672.2" r="4"/>
		<circle class="st1" cx="870.6" cy="672.2" r="4"/>
		<circle class="st1" cx="859.6" cy="672.2" r="4"/>
		<circle class="st1" cx="848.6" cy="672.2" r="4"/>
		<circle class="st1" cx="837.6" cy="672.2" r="4"/>
		<circle class="st1" cx="826.6" cy="672.2" r="4"/>
		<circle class="st1" cx="815.6" cy="672.2" r="4"/>
		<circle class="st1" cx="892.6" cy="718.2" r="4"/>
		<circle class="st1" cx="881.6" cy="718.2" r="4"/>
		<circle class="st1" cx="870.6" cy="718.2" r="4"/>
		<circle class="st1" cx="859.6" cy="718.2" r="4"/>
		<circle class="st1" cx="848.6" cy="718.2" r="4"/>
		<circle class="st1" cx="837.6" cy="718.2" r="4"/>
		<circle class="st1" cx="826.6" cy="718.2" r="4"/>
		<circle class="st1" cx="815.6" cy="718.2" r="4"/>
		<circle class="st1" cx="804.6" cy="672.2" r="4"/>
		<circle class="st1" cx="793.6" cy="672.2" r="4"/>
		<circle class="st1" cx="782.6" cy="672.2" r="4"/>
		<circle class="st1" cx="815.6" cy="683.2" r="4"/>
		<circle class="st1" cx="804.6" cy="683.2" r="4"/>
		<circle class="st1" cx="793.6" cy="683.2" r="4"/>
		<circle class="st1" cx="826.6" cy="694.2" r="4"/>
		<circle class="st1" cx="815.6" cy="694.2" r="4"/>
		<circle class="st1" cx="804.6" cy="694.2" r="4"/>
		<circle class="st1" cx="815.6" cy="706.2" r="4"/>
		<circle class="st1" cx="804.6" cy="706.2" r="4"/>
		<circle class="st1" cx="793.6" cy="706.2" r="4"/>
		<circle class="st1" cx="804.6" cy="718.2" r="4"/>
		<circle class="st1" cx="793.6" cy="718.2" r="4"/>
		<circle class="st1" cx="782.6" cy="718.2" r="4"/>
	</g>
</g>
</svg>
