<?xml version="1.0" encoding="UTF-8"?>
<svg id="Layer_1" data-name="Layer 1" xmlns="http://www.w3.org/2000/svg" viewBox="0 0 512 512">
  <defs>
    <style>
      .cls-1 {
        fill: #6365e9;
      }

      .cls-1, .cls-2 {
        stroke-width: 0px;
      }

      .cls-2 {
        fill: #fff;
      }
    </style>
  </defs>
  <rect class="cls-1" width="512" height="512" rx="119.75" ry="119.75"/>
  <g>
    <path class="cls-2" d="m230.6,83.86v30.93h-41.99v127.55h-38.6v-127.55h-41.99v-30.93h122.58Z"/>
    <path class="cls-2" d="m274.06,236.24c-9.86-5.27-17.61-12.79-23.25-22.57-5.64-9.78-8.47-21.22-8.47-34.31s2.86-24.34,8.58-34.2c5.72-9.85,13.54-17.42,23.48-22.69,9.93-5.27,21.07-7.9,33.41-7.9s23.48,2.63,33.41,7.9c9.93,5.27,17.76,12.83,23.48,22.69,5.72,9.86,8.58,21.26,8.58,34.2s-2.9,24.34-8.69,34.2c-5.79,9.86-13.7,17.42-23.7,22.69-10.01,5.27-21.18,7.9-33.52,7.9s-23.44-2.63-33.3-7.9Zm52.15-33.64c5.19-5.42,7.79-13.17,7.79-23.25s-2.52-17.83-7.56-23.25c-5.04-5.42-11.25-8.13-18.62-8.13s-13.77,2.67-18.74,8.01c-4.97,5.34-7.45,13.13-7.45,23.36s2.45,17.83,7.34,23.25c4.89,5.42,11.02,8.13,18.4,8.13s13.66-2.71,18.85-8.13Z"/>
    <path class="cls-2" d="m219.77,277.79c12.49,6.62,22.16,15.92,29.01,27.88,6.85,11.96,10.27,25.77,10.27,41.42s-3.42,29.27-10.27,41.31c-6.85,12.04-16.56,21.37-29.12,27.99-12.57,6.62-27.13,9.93-43.68,9.93h-59.37v-158.47h59.37c16.71,0,31.3,3.31,43.79,9.93Zm-12.19,103.17c8.13-7.98,12.19-19.26,12.19-33.86s-4.06-25.96-12.19-34.09c-8.13-8.13-19.49-12.19-34.09-12.19h-18.29v92.1h18.29c14.6,0,25.96-3.99,34.09-11.96Z"/>
    <path class="cls-2" d="m304.76,420.24c-9.86-5.27-17.61-12.79-23.25-22.58-5.64-9.78-8.46-21.22-8.46-34.31s2.86-24.34,8.58-34.2c5.72-9.86,13.54-17.42,23.48-22.69,9.93-5.27,21.07-7.9,33.41-7.9s23.48,2.63,33.41,7.9c9.93,5.27,17.76,12.83,23.48,22.69,5.72,9.86,8.58,21.26,8.58,34.2s-2.9,24.34-8.69,34.2c-5.8,9.86-13.7,17.42-23.7,22.69-10.01,5.27-21.18,7.9-33.52,7.9s-23.44-2.63-33.3-7.9Zm52.15-33.64c5.19-5.42,7.79-13.17,7.79-23.25s-2.52-17.83-7.56-23.25c-5.04-5.42-11.25-8.13-18.62-8.13s-13.77,2.67-18.74,8.01c-4.97,5.34-7.45,13.13-7.45,23.36s2.44,17.83,7.34,23.25c4.89,5.42,11.02,8.13,18.4,8.13s13.66-2.71,18.85-8.13Z"/>
  </g>
</svg>